<svg width="1000" height="1000" viewBox="0 0 1000 1000" xmlns="http://www.w3.org/2000/svg"><defs/><path fill="#fe1620" transform="matrix(0.6287092597288766 0 0 0.6287092597288767 30.741480373528844 107.53673272469348)" d="M 459.19162044923 611.90084755568 C 459.19162044923 612.00084755568 459.19162044923 612.00084755568 459.19162044923 612.10084755568 C 458.99162044923 613.20084755568 458.59162044923 614.30084755568 458.09162044923 615.30084755568 C 455.89162044923 619.50084755568 451.49162044923 621.80084755568 447.09162044923 622.80084755568 C 443.99162044923 623.50084755568 440.69162044923 623.60084755568 437.49162044923 623.50084755568 C 436.09162044923 623.50084755568 434.69162044923 623.40084755568 433.29162044923 623.20084755568 C 432.99162044923 623.20084755568 430.79162044923 623.10084755568 430.79162044923 622.50084755568 C 430.79162044923 622.60084755568 430.79162044923 622.60084755568 430.79162044923 622.50084755568 C 430.79162044923 622.40084755568 430.79162044923 622.40084755568 430.79162044923 622.50084755568 C 430.79162044923 621.70084755568 435.19162044923 621.20084755568 435.79162044923 621.10084755568 C 438.29162044923 620.70084755568 440.79162044923 620.30084755568 443.19162044923 619.80084755568 C 447.69162044923 618.70084755568 451.49162044923 616.70084755568 454.79162044923 613.40084755568 C 455.49162044923 612.70084755568 456.19162044923 611.90084755568 456.99162044923 611.20084755568 C 457.39162044923 610.90084755568 458.29162044923 609.90084755568 458.89162044923 610.30084755568 C 459.09162044923 610.40084755568 459.19162044923 610.70084755568 459.29162044923 611.00084755568 C 459.59162044923 605.70084755568 463.09162044923 601.10084755568 464.29162044923 595.90084755568 C 465.59162044923 590.20084755568 463.69162044923 582.40084755568 462.19162044923 576.80084755568 C 460.49162044923 570.20084755568 457.09162044923 567.20084755568 453.29162044923 562.30084755568 C 450.19162044923 558.20084755568 448.69162044923 552.60084755568 444.19162044923 549.60084755568 C 440.59162044923 547.20084755568 436.69162044923 547.90084755568 432.79162044923 547.50084755568 C 432.89162044923 547.70084755568 432.99162044923 548.00084755568 433.09162044923 548.20084755568 C 433.99162044923 550.50084755568 433.79162044923 553.00084755568 432.99162044923 555.20084755568 C 431.39162044923 559.70084755568 427.89162044923 563.50084755568 423.99162044923 566.10084755568 C 423.49162044923 566.40084755568 420.19162044923 568.60084755568 419.79162044923 567.90084755568 C 419.89162044923 568.10084755568 419.69162044923 567.70084755568 419.79162044923 567.90084755568 C 419.59162044923 567.60084755568 420.79162044923 566.60084755568 420.99162044923 566.40084755568 C 421.79162044923 565.60084755568 422.59162044923 564.80084755568 423.29162044923 564.00084755568 C 424.99162044923 562.20084755568 426.49162044923 560.20084755568 427.69162044923 558.10084755568 C 428.79162044923 556.20084755568 429.59162044923 554.20084755568 429.89162044923 552.10084755568 C 430.09162044923 551.00084755568 430.09162044923 549.90084755568 429.99162044923 548.80084755568 C 429.89162044923 548.10084755568 429.69162044923 547.50084755568 429.59162044923 546.80084755568 C 429.29162044923 546.70084755568 428.99162044923 546.60084755568 428.59162044923 546.40084755568 C 424.49162044923 544.60084755568 421.89162044923 541.50084755568 418.29162044923 539.10084755568 C 414.89162044923 536.80084755568 414.49162044923 537.50084755568 411.89162044923 533.20084755568 C 409.89162044923 529.80084755568 408.99162044923 526.50084755568 405.79162044923 523.90084755568 C 397.39162044923 517.40084755568 387.29162044923 519.80084755568 377.89162044923 518.00084755568 C 378.19162044923 518.20084755568 378.39162044923 518.50084755568 378.69162044923 518.70084755568 C 380.09162044923 520.30084755568 380.99162044923 522.30084755568 381.49162044923 524.30084755568 C 382.59162044923 528.80084755568 382.39162044923 534.00084755568 380.39162044923 538.20084755568 C 380.19162044923 538.60084755568 378.69162044923 541.60084755568 378.09162044923 541.20084755568 C 378.29162044923 541.30084755568 377.89162044923 541.10084755568 378.09162044923 541.20084755568 C 377.79162044923 541.00084755568 378.39162044923 539.40084755568 378.39162044923 539.20084755568 C 378.69162044923 538.10084755568 378.89162044923 537.00084755568 378.99162044923 535.90084755568 C 379.29162044923 533.40084755568 379.19162044923 530.90084755568 378.79162044923 528.40084755568 C 378.39162044923 526.30084755568 377.79162044923 524.20084755568 376.89162044923 522.20084755568 C 376.49162044923 521.30084755568 375.99162044923 520.40084755568 375.39162044923 519.50084755568 C 374.89162044923 518.70084755568 374.09162044923 517.90084755568 373.89162044923 517.00084755568 C 373.89162044923 516.90084755568 373.89162044923 516.90084755568 373.89162044923 516.80084755568 C 368.59162044923 515.20084755568 362.99162044923 513.60084755568 357.59162044923 515.10084755568 C 352.59162044923 516.50084755568 350.69162044923 522.50084755568 346.79162044923 523.50084755568 C 344.29162044923 524.20084755568 341.09162044923 522.70084755568 338.59162044923 523.20084755568 C 337.19162044923 523.50084755568 336.99162044923 524.70084755568 335.39162044923 524.70084755568 C 333.99162044923 525.90084755568 332.79162044923 527.40084755568 331.39162044923 528.50084755568 C 331.69162044923 528.70084755568 331.99162044923 528.80084755568 332.29162044923 529.00084755568 C 337.09162044923 531.70084755568 340.59162044923 536.40084755568 343.09162044923 541.20084755568 C 344.39162044923 543.70084755568 345.49162044923 546.40084755568 346.29162044923 549.10084755568 C 346.69162044923 550.30084755568 346.99162044923 551.60084755568 347.19162044923 552.80084755568 C 347.29162044923 553.10084755568 347.59162044923 554.70084755568 347.09162044923 554.80084755568 C 347.39162044923 554.70084755568 346.69162044923 554.90084755568 347.09162044923 554.80084755568 C 346.69162044923 554.90084755568 346.19162044923 554.00084755568 345.99162044923 553.80084755568 C 345.39162044923 552.90084755568 344.79162044923 551.90084755568 344.19162044923 550.90084755568 C 342.89162044923 548.70084755568 341.69162044923 546.60084755568 340.29162044923 544.50084755568 C 337.59162044923 540.50084755568 334.39162044923 536.70084755568 330.29162044923 534.10084755568 C 328.19162044923 532.80084755568 325.99162044923 531.70084755568 323.69162044923 530.90084755568 C 323.19162044923 530.70084755568 321.09162044923 530.20084755568 320.09162044923 529.40084755568 C 317.29162044923 528.50084755568 314.49162044923 527.70084755568 311.19162044923 529.20084755568 C 306.99162044923 531.10084755568 304.99162044923 535.30084755568 303.09162044923 539.20084755568 C 298.09162044923 549.20084755568 299.29162044923 555.80084755568 286.99162044923 554.90084755568 C 278.09162044923 554.20084755568 271.49162044923 560.20084755568 264.89162044923 565.20084755568 C 261.59162044923 567.80084755568 259.99162044923 570.90084755568 258.19162044923 574.00084755568 C 258.19162044923 575.40084755568 258.09162044923 576.80084755568 258.49162044923 578.10084755568 C 258.99162044923 579.80084755568 259.99162044923 581.20084755568 260.99162044923 582.60084755568 C 263.19162044923 585.40084755568 266.09162044923 587.70084755568 268.99162044923 589.80084755568 C 272.19162044923 592.10084755568 275.39162044923 594.30084755568 278.59162044923 596.60084755568 C 279.99162044923 597.60084755568 281.29162044923 598.60084755568 282.59162044923 599.80084755568 C 282.99162044923 600.10084755568 285.69162044923 602.50084755568 285.09162044923 603.20084755568 C 285.09162044923 603.20084755568 285.09162044923 603.20084755568 285.09162044923 603.20084755568 C 284.89162044923 603.40084755568 284.99162044923 603.30084755568 285.09162044923 603.20084755568 C 284.79162044923 603.50084755568 284.09162044923 603.10084755568 283.79162044923 603.00084755568 C 282.79162044923 602.60084755568 281.79162044923 602.10084755568 280.79162044923 601.70084755568 C 278.79162044923 600.80084755568 276.69162044923 599.80084755568 274.69162044923 598.90084755568 C 270.19162044923 596.70084755568 265.59162044923 594.50084755568 261.49162044923 591.50084755568 C 257.69162044923 588.80084755568 253.99162044923 585.10084755568 253.19162044923 580.30084755568 C 253.19162044923 580.30084755568 253.19162044923 580.30084755568 253.19162044923 580.30084755568 C 248.99162044923 583.70084755568 245.29162044923 583.20084755568 241.79162044923 588.40084755568 C 236.99162044923 595.60084755568 232.99162044923 605.60084755568 233.99162044923 614.40084755568 C 234.69162044923 620.60084755568 241.49162044923 624.10084755568 242.19162044923 630.00084755568 C 242.89162044923 635.90084755568 237.39162044923 641.80084755568 235.59162044923 647.20084755568 C 233.09162044923 654.60084755568 236.59162044923 660.40084755568 240.69162044923 666.00084755568 C 240.89162044923 666.10084755568 240.99162044923 666.10084755568 241.19162044923 666.20084755568 C 242.29162044923 666.60084755568 243.29162044923 667.10084755568 244.39162044923 667.40084755568 C 250.09162044923 669.30084755568 256.29162044923 669.40084755568 262.19162044923 668.40084755568 C 265.39162044923 667.90084755568 268.49162044923 667.10084755568 271.59162044923 666.10084755568 C 272.89162044923 665.70084755568 274.19162044923 665.20084755568 275.49162044923 664.80084755568 C 275.89162044923 664.70084755568 277.89162044923 663.70084755568 278.19162044923 664.20084755568 C 277.99162044923 663.90084755568 278.39162044923 664.50084755568 278.19162044923 664.20084755568 C 278.69162044923 664.90084755568 275.49162044923 667.10084755568 275.09162044923 667.40084755568 C 273.29162044923 668.70084755568 271.29162044923 669.70084755568 269.29162044923 670.70084755568 C 264.79162044923 672.70084755568 259.99162044923 674.10084755568 255.09162044923 674.40084755568 C 251.99162044923 674.60084755568 248.79162044923 674.40084755568 245.89162044923 673.30084755568 C 245.99162044923 673.50084755568 246.09162044923 673.70084755568 246.19162044923 673.80084755568 C 252.29162044923 683.90084755568 256.89162044923 695.00084755568 264.09162044923 704.50084755568 C 266.59162044923 707.80084755568 268.89162044923 707.60084755568 272.89162044923 710.10084755568 C 275.09162044923 711.50084755568 276.79162044923 713.40084755568 278.69162044923 714.20084755568 C 279.99162044923 714.80084755568 281.79162044923 714.50084755568 283.09162044923 714.80084755568 C 291.69162044923 716.40084755568 303.09162044923 719.90084755568 312.59162044923 717.90084755568 C 312.79162044923 717.40084755568 312.99162044923 716.90084755568 312.99162044923 716.80084755568 C 313.69162044923 715.30084755568 314.59162044923 713.90084755568 315.39162044923 712.40084755568 C 317.29162044923 709.50084755568 319.09162044923 706.50084755568 320.89162044923 703.50084755568 C 321.09162044923 703.10084755568 322.99162044923 699.40084755568 323.59162044923 699.60084755568 C 323.19162044923 699.40084755568 323.99162044923 699.80084755568 323.59162044923 699.60084755568 C 324.19162044923 699.80084755568 322.79162044923 703.40084755568 322.69162044923 703.70084755568 C 321.89162044923 706.10084755568 320.89162044923 708.40084755568 319.79162044923 710.60084755568 C 318.79162044923 712.60084755568 317.69162044923 714.60084755568 316.29162044923 716.40084755568 C 316.09162044923 716.60084755568 315.89162044923 716.90084755568 315.69162044923 717.20084755568 C 317.49162044923 717.90084755568 318.79162044923 718.40084755568 320.19162044923 718.50084755568 C 328.09162044923 718.90084755568 331.39162044923 710.20084755568 338.59162044923 713.80084755568 C 342.59162044923 722.70084755568 347.29162044923 729.90084755568 357.89162044923 728.80084755568 C 359.69162044923 728.60084755568 363.59162044923 726.60084755568 366.69162044923 725.30084755568 C 366.69162044923 724.50084755568 367.29162044923 723.50084755568 367.59162044923 722.90084755568 C 368.49162044923 721.00084755568 369.59162044923 719.10084755568 370.29162044923 717.10084755568 C 371.19162044923 714.80084755568 371.59162044923 712.40084755568 371.99162044923 710.00084755568 C 372.29162044923 707.60084755568 372.39162044923 705.20084755568 372.89162044923 702.90084755568 C 372.89162044923 702.70084755568 373.09162044923 701.80084755568 373.39162044923 701.80084755568 C 373.29162044923 701.80084755568 373.29162044923 701.80084755568 373.39162044923 701.80084755568 C 373.39162044923 701.80084755568 373.39162044923 701.80084755568 373.49162044923 701.80084755568 C 373.59162044923 701.80084755568 373.49162044923 701.80084755568 373.49162044923 701.80084755568 C 373.49162044923 701.80084755568 373.49162044923 701.80084755568 373.39162044923 701.80084755568 C 374.09162044923 701.80084755568 374.39162044923 706.50084755568 374.39162044923 707.00084755568 C 374.59162044923 709.50084755568 374.69162044923 712.00084755568 374.29162044923 714.50084755568 C 373.89162044923 717.50084755568 372.89162044923 720.80084755568 370.89162044923 723.20084755568 C 377.39162044923 721.10084755568 383.89162044923 727.20084755568 391.19162044923 721.60084755568 C 394.19162044923 719.30084755568 396.89162044923 708.60084755568 400.89162044923 708.80084755568 C 404.79162044923 709.00084755568 408.79162044923 712.60084755568 412.89162044923 712.30084755568 C 415.99162044923 712.00084755568 416.99162044923 710.70084755568 419.89162044923 707.90084755568 C 423.39162044923 706.40084755568 427.29162044923 709.80084755568 430.99162044923 707.60084755568 C 434.29162044923 705.30084755568 437.19162044923 703.10084755568 438.29162044923 698.80084755568 C 439.09162044923 695.80084755568 438.59162044923 693.40084755568 438.29162044923 691.60084755568 C 437.69162044923 691.40084755568 437.19162044923 691.00084755568 436.79162044923 690.80084755568 C 434.89162044923 689.60084755568 433.29162044923 688.20084755568 431.69162044923 686.70084755568 C 428.19162044923 683.30084755568 424.89162044923 679.60084755568 422.59162044923 675.30084755568 C 422.39162044923 674.90084755568 420.89162044923 672.20084755568 421.39162044923 671.90084755568 C 421.19162044923 672.00084755568 421.59162044923 671.80084755568 421.39162044923 671.90084755568 C 421.79162044923 671.70084755568 422.79162044923 673.10084755568 422.99162044923 673.30084755568 C 423.79162044923 674.20084755568 424.49162044923 675.00084755568 425.29162044923 675.90084755568 C 426.99162044923 677.70084755568 428.69162044923 679.40084755568 430.49162044923 681.00084755568 C 433.19162044923 683.40084755568 436.39162044923 685.80084755568 438.39162044923 688.90084755568 C 438.99162044923 688.20084755568 440.49162044923 687.80084755568 443.59162044923 687.90084755568 C 450.69162044923 688.00084755568 455.99162044923 689.10084755568 459.29162044923 679.90084755568 C 459.59162044923 679.20084755568 459.69162044923 678.50084755568 459.79162044923 677.80084755568 C 460.69162044923 672.70084755568 457.79162044923 668.40084755568 458.19162044923 662.80084755568 C 458.59162044923 657.50084755568 460.19162044923 651.70084755568 460.19162044923 646.70084755568 C 460.19162044923 641.60084755568 458.19162044923 640.90084755568 456.39162044923 636.10084755568 C 458.09162044923 634.00084755568 460.79162044923 632.90084755568 462.79162044923 631.10084755568 C 466.79162044923 624.00084755568 459.79162044923 619.60084755568 458.89162044923 613.10084755568 C 459.19162044923 612.80084755568 459.19162044923 612.40084755568 459.19162044923 611.90084755568 Z M 443.89162044923 659.70084755568 C 443.49162044923 660.10084755568 441.29162044923 658.70084755568 440.99162044923 658.50084755568 C 438.99162044923 657.40084755568 436.99162044923 656.40084755568 434.89162044923 655.50084755568 C 430.29162044923 653.50084755568 425.49162044923 652.00084755568 420.59162044923 651.10084755568 C 416.29162044923 650.30084755568 411.89162044923 649.80084755568 407.49162044923 649.70084755568 C 402.59162044923 649.60084755568 397.59162044923 649.00084755568 392.79162044923 647.60084755568 C 389.69162044923 646.70084755568 386.59162044923 645.40084755568 383.79162044923 643.70084755568 C 383.19162044923 644.70084755568 382.59162044923 645.70084755568 381.89162044923 646.60084755568 C 380.59162044923 648.30084755568 378.89162044923 649.30084755568 376.99162044923 650.20084755568 C 378.99162044923 651.80084755568 380.69162044923 653.90084755568 381.99162044923 656.20084755568 C 386.99162044923 665.00084755568 387.49162044923 675.40084755568 391.39162044923 684.60084755568 C 392.09162044923 686.40084755568 392.99162044923 688.10084755568 394.19162044923 689.60084755568 C 394.39162044923 689.90084755568 396.29162044923 691.90084755568 396.09162044923 692.20084755568 C 396.29162044923 691.90084755568 395.99162044923 692.30084755568 396.09162044923 692.20084755568 C 395.89162044923 692.60084755568 394.39162044923 691.60084755568 394.19162044923 691.40084755568 C 393.19162044923 690.70084755568 392.39162044923 689.90084755568 391.59162044923 689.00084755568 C 389.99162044923 687.20084755568 388.79162044923 685.10084755568 387.79162044923 683.00084755568 C 385.59162044923 678.40084755568 384.19162044923 673.50084755568 382.49162044923 668.80084755568 C 380.99162044923 664.40084755568 379.29162044923 660.00084755568 376.49162044923 656.20084755568 C 375.19162044923 654.50084755568 373.69162044923 653.00084755568 371.99162044923 651.90084755568 C 369.59162044923 652.60084755568 367.09162044923 653.30084755568 365.09162044923 654.50084755568 C 365.09162044923 654.50084755568 365.09162044923 654.50084755568 365.09162044923 654.50084755568 C 359.99162044923 657.50084755568 362.49162044923 660.40084755568 355.09162044923 660.30084755568 C 353.59162044923 660.30084755568 351.99162044923 660.20084755568 350.39162044923 660.10084755568 C 351.19162044923 661.50084755568 351.69162044923 663.10084755568 351.99162044923 664.70084755568 C 352.89162044923 669.60084755568 351.19162044923 674.30084755568 348.89162044923 678.50084755568 C 346.49162044923 682.90084755568 343.59162044923 686.90084755568 341.59162044923 691.50084755568 C 340.69162044923 693.70084755568 340.09162044923 696.00084755568 339.89162044923 698.30084755568 C 339.79162044923 699.40084755568 339.79162044923 700.50084755568 339.89162044923 701.60084755568 C 339.89162044923 701.90084755568 340.29162044923 703.80084755568 339.89162044923 704.00084755568 C 339.99162044923 704.00084755568 339.79162044923 704.00084755568 339.89162044923 704.00084755568 C 339.49162044923 704.10084755568 338.89162044923 702.50084755568 338.79162044923 702.20084755568 C 338.39162044923 701.10084755568 338.19162044923 700.00084755568 337.99162044923 698.80084755568 C 337.69162044923 696.40084755568 337.99162044923 693.90084755568 338.59162044923 691.60084755568 C 339.89162044923 686.80084755568 342.49162044923 682.50084755568 344.59162044923 678.10084755568 C 346.69162044923 673.90084755568 348.39162044923 669.40084755568 347.59162044923 664.60084755568 C 347.29162044923 662.90084755568 346.69162044923 661.20084755568 345.89162044923 659.60084755568 C 345.49162044923 659.50084755568 344.99162044923 659.40084755568 344.59162044923 659.30084755568 C 341.49162044923 658.40084755568 339.59162044923 656.00084755568 336.79162044923 655.00084755568 C 331.79162044923 653.20084755568 326.29162044923 656.30084755568 321.29162044923 654.90084755568 C 320.39162044923 654.60084755568 319.49162044923 654.30084755568 318.59162044923 653.80084755568 C 311.09162044923 658.20084755568 306.29162044923 666.40084755568 302.29162044923 673.90084755568 C 299.59162044923 678.90084755568 297.19162044923 684.10084755568 294.39162044923 689.10084755568 C 293.09162044923 691.40084755568 291.69162044923 693.70084755568 290.09162044923 695.80084755568 C 289.79162044923 696.20084755568 286.39162044923 700.60084755568 285.69162044923 700.00084755568 C 285.69162044923 700.00084755568 285.69162044923 700.00084755568 285.69162044923 700.00084755568 C 285.49162044923 699.80084755568 285.59162044923 699.90084755568 285.69162044923 700.00084755568 C 285.29162044923 699.60084755568 286.99162044923 697.10084755568 287.19162044923 696.70084755568 C 288.29162044923 694.60084755568 289.29162044923 692.50084755568 290.29162044923 690.40084755568 C 292.29162044923 685.80084755568 294.09162044923 681.10084755568 296.09162044923 676.40084755568 C 299.69162044923 667.70084755568 303.79162044923 658.10084755568 311.59162044923 652.30084755568 C 312.39162044923 651.70084755568 313.29162044923 651.10084755568 314.19162044923 650.60084755568 C 310.89162044923 647.50084755568 308.69162044923 643.20084755568 309.19162044923 638.90084755568 C 309.19162044923 638.80084755568 309.19162044923 638.70084755568 309.19162044923 638.60084755568 C 300.09162044923 637.30084755568 292.09162044923 631.80084755568 284.09162044923 627.60084755568 C 279.79162044923 625.30084755568 275.39162044923 623.20084755568 270.59162044923 622.10084755568 C 268.39162044923 621.60084755568 266.09162044923 621.30084755568 263.79162044923 621.20084755568 C 262.69162044923 621.20084755568 261.59162044923 621.20084755568 260.59162044923 621.30084755568 C 260.29162044923 621.30084755568 258.39162044923 621.60084755568 258.29162044923 621.20084755568 C 258.39162044923 621.40084755568 258.19162044923 621.00084755568 258.29162044923 621.20084755568 C 258.09162044923 620.40084755568 262.59162044923 619.40084755568 263.09162044923 619.30084755568 C 265.39162044923 618.90084755568 267.79162044923 618.80084755568 270.19162044923 619.00084755568 C 275.29162044923 619.40084755568 280.09162044923 621.10084755568 284.79162044923 623.10084755568 C 293.39162044923 626.80084755568 301.59162044923 631.70084755568 310.79162044923 633.80084755568 C 313.19162044923 629.20084755568 317.59162044923 625.20084755568 320.79162044923 621.60084755568 C 321.19162044923 621.10084755568 321.59162044923 620.70084755568 321.89162044923 620.10084755568 C 318.09162044923 618.20084755568 315.09162044923 615.10084755568 312.19162044923 612.00084755568 C 310.99162044923 610.70084755568 309.79162044923 609.30084755568 308.59162044923 608.00084755568 C 308.09162044923 607.50084755568 305.09162044923 604.50084755568 305.49162044923 604.00084755568 C 305.29162044923 604.20084755568 305.69162044923 603.80084755568 305.49162044923 604.00084755568 C 305.99162044923 603.30084755568 309.59162044923 606.10084755568 310.09162044923 606.40084755568 C 312.19162044923 607.90084755568 314.09162044923 609.60084755568 315.99162044923 611.20084755568 C 317.79162044923 612.70084755568 319.59162044923 614.10084755568 321.59162044923 615.40084755568 C 322.29162044923 615.80084755568 322.99162044923 616.20084755568 323.69162044923 616.70084755568 C 326.69162044923 610.10084755568 327.89162044923 601.60084755568 334.39162044923 598.80084755568 C 334.49162044923 598.80084755568 334.59162044923 598.70084755568 334.69162044923 598.70084755568 C 328.99162044923 594.10084755568 323.89162044923 588.80084755568 317.29162044923 585.40084755568 C 311.69162044923 582.50084755568 305.19162044923 582.30084755568 299.19162044923 580.70084755568 C 295.99162044923 579.90084755568 292.89162044923 578.70084755568 290.29162044923 576.70084755568 C 289.09162044923 575.80084755568 287.99162044923 574.70084755568 287.09162044923 573.50084755568 C 286.79162044923 573.10084755568 285.09162044923 570.80084755568 285.59162044923 570.50084755568 C 285.39162044923 570.60084755568 285.79162044923 570.40084755568 285.59162044923 570.50084755568 C 285.89162044923 570.30084755568 287.09162044923 571.50084755568 287.29162044923 571.70084755568 C 288.19162044923 572.40084755568 289.09162044923 573.20084755568 289.99162044923 573.80084755568 C 291.89162044923 575.00084755568 293.99162044923 575.90084755568 296.19162044923 576.50084755568 C 301.09162044923 577.80084755568 306.29162044923 577.80084755568 311.29162044923 578.60084755568 C 313.19162044923 578.90084755568 315.19162044923 579.20084755568 316.99162044923 579.80084755568 C 319.09162044923 580.60084755568 321.09162044923 581.50084755568 322.99162044923 582.60084755568 C 327.09162044923 584.90084755568 330.79162044923 587.90084755568 334.19162044923 591.20084755568 C 336.09162044923 593.00084755568 337.99162044923 595.00084755568 339.69162044923 597.00084755568 C 343.99162044923 595.80084755568 348.79162044923 594.90084755568 352.79162044923 594.70084755568 C 357.79162044923 594.40084755568 359.09162044923 593.40084755568 363.09162044923 591.30084755568 C 363.49162044923 591.10084755568 363.79162044923 591.00084755568 364.09162044923 590.80084755568 C 364.69162044923 587.50084755568 365.99162044923 584.20084755568 367.59162044923 581.30084755568 C 369.59162044923 577.40084755568 372.19162044923 573.70084755568 375.09162044923 570.40084755568 C 378.39162044923 566.60084755568 382.59162044923 564.10084755568 387.09162044923 561.90084755568 C 390.19162044923 560.40084755568 393.29162044923 559.00084755568 396.29162044923 557.20084755568 C 397.59162044923 556.40084755568 398.89162044923 555.50084755568 400.09162044923 554.40084755568 C 400.29162044923 554.20084755568 401.49162044923 553.00084755568 401.79162044923 553.20084755568 C 401.49162044923 553.00084755568 401.89162044923 553.30084755568 401.79162044923 553.20084755568 C 402.19162044923 553.50084755568 401.19162044923 554.90084755568 400.99162044923 555.20084755568 C 400.39162044923 556.20084755568 399.59162044923 557.10084755568 398.79162044923 557.90084755568 C 397.09162044923 559.60084755568 395.09162044923 561.00084755568 393.09162044923 562.20084755568 C 388.69162044923 565.00084755568 383.99162044923 567.40084755568 380.39162044923 571.10084755568 C 377.19162044923 574.30084755568 374.79162044923 578.40084755568 372.59162044923 582.40084755568 C 371.29162044923 584.90084755568 369.99162044923 587.40084755568 368.89162044923 590.00084755568 C 372.59162044923 590.70084755568 375.39162044923 594.10084755568 379.09162044923 596.60084755568 C 382.49162044923 598.90084755568 385.19162044923 600.80084755568 386.49162044923 604.10084755568 C 393.49162044923 604.00084755568 400.59162044923 605.30084755568 407.49162044923 603.50084755568 C 414.39162044923 601.60084755568 420.99162044923 598.70084755568 428.19162044923 597.60084755568 C 431.89162044923 597.00084755568 435.99162044923 596.80084755568 439.59162044923 598.00084755568 C 441.19162044923 598.50084755568 442.69162044923 599.40084755568 443.99162044923 600.50084755568 C 444.69162044923 601.10084755568 445.19162044923 601.90084755568 445.69162044923 602.70084755568 C 445.79162044923 602.90084755568 446.39162044923 604.00084755568 446.09162044923 604.20084755568 C 446.29162044923 604.10084755568 445.89162044923 604.30084755568 446.09162044923 604.20084755568 C 445.79162044923 604.40084755568 444.59162044923 603.10084755568 444.29162044923 602.90084755568 C 443.49162044923 602.30084755568 442.59162044923 601.70084755568 441.69162044923 601.30084755568 C 439.59162044923 600.40084755568 437.29162044923 600.20084755568 434.99162044923 600.40084755568 C 429.89162044923 600.80084755568 424.89162044923 602.60084755568 420.19162044923 604.50084755568 C 415.99162044923 606.20084755568 411.79162044923 608.20084755568 407.39162044923 609.30084755568 C 402.69162044923 610.50084755568 397.79162044923 610.60084755568 392.99162044923 610.20084755568 C 391.09162044923 610.00084755568 389.29162044923 609.80084755568 387.39162044923 609.60084755568 C 387.59162044923 611.80084755568 387.79162044923 614.00084755568 387.89162044923 616.20084755568 C 388.09162044923 619.40084755568 388.29162044923 622.60084755568 388.39162044923 625.60084755568 C 388.49162044923 629.30084755568 387.59162044923 633.80084755568 385.99162044923 638.10084755568 C 386.49162044923 638.40084755568 386.99162044923 638.60084755568 387.49162044923 638.90084755568 C 391.69162044923 641.00084755568 396.09162044923 642.40084755568 400.69162044923 643.30084755568 C 404.29162044923 644.00084755568 407.99162044923 644.10084755568 411.59162044923 644.60084755568 C 421.39162044923 646.00084755568 431.39162044923 649.30084755568 439.29162044923 655.50084755568 C 440.29162044923 655.70084755568 444.49162044923 659.00084755568 443.89162044923 659.70084755568 C 443.99162044923 659.50084755568 443.59162044923 660.10084755568 443.89162044923 659.70084755568 Z M 454.99162044923 635.60084755568 C 454.29162044923 635.90084755568 453.59162044923 636.20084755568 452.79162044923 636.30084755568 C 451.19162044923 636.70084755568 449.59162044923 636.70084755568 447.99162044923 636.60084755568 C 446.19162044923 636.50084755568 444.39162044923 636.30084755568 442.59162044923 635.90084755568 C 442.39162044923 635.80084755568 439.89162044923 635.30084755568 439.99162044923 634.80084755568 C 439.89162044923 635.10084755568 440.09162044923 634.50084755568 439.99162044923 634.80084755568 C 440.09162044923 634.40084755568 442.39162044923 634.70084755568 442.69162044923 634.70084755568 C 444.49162044923 634.80084755568 446.19162044923 634.70084755568 447.99162044923 634.60084755568 C 448.89162044923 634.50084755568 456.49162044923 633.40084755568 456.39162044923 634.30084755568 C 456.39162044923 634.90084755568 455.39162044923 635.40084755568 454.99162044923 635.60084755568 Z"/><path fill="#00997b" fill-rule="evenodd" transform="matrix(0.6287092597288766 0 0 0.6287092597288767 30.741480373528844 107.53673272469348)" d="M 448.59162044923 505.00084755568 C 442.89162044923 501.60084755568 435.89162044923 497.10084755568 428.49162044923 493.00084755568 C 421.19162044923 488.90084755568 413.49162044923 485.20084755568 406.99162044923 482.70084755568 C 391.49162044923 476.70084755568 374.79162044923 472.90084755568 357.59162044923 472.00084755568 C 340.39162044923 471.10084755568 322.79162044923 472.90084755568 305.69162044923 477.90084755568 C 288.69162044923 482.90084755568 272.29162044923 491.00084755568 257.69162044923 501.80084755568 C 243.09162044923 512.70084755568 230.39162044923 526.30084755568 220.69162044923 541.90084755568 C 208.69162044923 561.10084755568 200.89162044923 583.20084755568 198.49162044923 606.20084755568 C 195.99162044923 629.20084755568 198.69162044923 652.90084755568 206.69162044923 674.90084755568 C 214.59162044923 696.90084755568 227.79162044923 717.10084755568 244.79162044923 733.40084755568 C 261.69162044923 749.70084755568 282.49162044923 762.00084755568 304.89162044923 769.00084755568 C 327.29162044923 776.00084755568 351.09162044923 777.70084755568 373.99162044923 774.30084755568 C 396.89162044923 770.80084755568 418.69162044923 762.00084755568 437.39162044923 749.10084755568 C 456.09162044923 736.20084755568 471.49162044923 719.20084755568 482.39162044923 700.10084755568 C 493.39162044923 681.00084755568 499.79162044923 659.80084755568 501.59162044923 638.70084755568 C 502.99162044923 622.40084755568 501.29162044923 606.10084755568 497.39162044923 590.70084755568 C 493.49162044923 575.30084755568 487.49162044923 560.80084755568 480.29162044923 547.10084755568 C 479.69162044923 542.10084755568 480.09162044923 539.80084755568 481.59162044923 539.80084755568 C 483.09162044923 539.80084755568 485.59162044923 542.00084755568 488.59162044923 545.80084755568 C 491.59162044923 549.60084755568 494.89162044923 555.10084755568 497.99162044923 561.60084755568 C 501.09162044923 568.10084755568 503.79162044923 575.50084755568 505.99162044923 583.00084755568 C 510.79162044923 599.80084755568 512.69162044923 618.00084755568 511.39162044923 636.30084755568 C 510.09162044923 654.60084755568 505.39162044923 673.20084755568 497.39162044923 690.50084755568 C 489.39162044923 707.80084755568 478.09162044923 723.90084755568 464.09162044923 737.50084755568 C 450.19162044923 751.10084755568 433.59162044923 762.30084755568 415.39162044923 770.00084755568 C 397.29162044923 777.80084755568 377.59162044923 782.10084755568 357.89162044923 782.80084755568 C 338.19162044923 783.50084755568 318.39162044923 780.60084755568 299.89162044923 774.30084755568 C 281.39162044923 768.00084755568 264.09162044923 758.40084755568 249.29162044923 746.20084755568 C 234.39162044923 734.10084755568 221.79162044923 719.50084755568 212.09162044923 703.40084755568 C 204.79162044923 691.90084755568 199.09162044923 678.90084755568 195.29162044923 665.00084755568 C 191.49162044923 651.20084755568 189.59162044923 636.60084755568 189.69162044923 621.90084755568 C 189.79162044923 607.20084755568 191.99162044923 592.30084755568 196.29162044923 578.00084755568 C 200.59162044923 563.70084755568 206.99162044923 550.00084755568 215.09162044923 537.50084755568 C 223.19162044923 525.00084755568 233.09162044923 513.70084755568 244.19162044923 504.10084755568 C 255.29162044923 494.50084755568 267.69162044923 486.50084755568 280.69162044923 480.40084755568 C 293.69162044923 474.30084755568 307.39162044923 470.10084755568 321.09162044923 467.80084755568 C 334.79162044923 465.50084755568 348.49162044923 465.00084755568 361.59162044923 466.20084755568 C 370.69162044923 467.00084755568 379.89162044923 468.50084755568 388.69162044923 470.90084755568 C 397.49162044923 473.20084755568 405.89162044923 476.30084755568 413.59162044923 479.90084755568 C 420.19162044923 483.00084755568 427.49162044923 486.70084755568 433.79162044923 491.10084755568 C 440.29162044923 495.40084755568 445.69162044923 500.30084755568 448.59162044923 505.00084755568 Z"/><path id="text" fill="#ffffff" transform="matrix(1.5810626387838624 0 0 1.5810626387838624 332.1933963827463 117.0483089419521)" d="M 57.69293268516 211.50846210866 C 60.44293268516 211.50846210866 65.28668268516 211.39908710866 72.22418268516 211.18033710866 C 79.16168268516 210.96158710866 84.41168268516 210.85221210866 87.97418268516 210.85221210866 C 88.22418268516 212.72721210866 88.72418268516 215.33658710866 89.47418268516 218.68033710866 C 90.22418268516 222.02408710866 90.63043268516 223.85221210866 90.69293268516 224.16471210866 C 90.38043268516 224.47721210866 89.72418268516 224.63346210866 88.72418268516 224.63346210866 C 88.03668268516 224.63346210866 87.59918268516 224.41471210866 87.41168268516 223.97721210866 C 85.34918268516 218.41471210866 81.34918268516 215.63346210866 75.41168268516 215.63346210866 L 70.53668268516 215.63346210866 C 65.91168268516 215.63346210866 63.53668268516 216.03971210866 63.41168268516 216.85221210866 C 63.03668268516 218.60221210866 62.84918268516 221.13346210866 62.84918268516 224.44596210866 L 62.84918268516 239.16471210866 C 62.84918268516 239.53971210866 64.22418268516 239.72721210866 66.97418268516 239.72721210866 L 71.84918268516 239.72721210866 C 71.91168268516 239.72721210866 72.03668268516 239.72721210866 72.22418268516 239.72721210866 C 75.84918268516 239.72721210866 78.00543268516 239.57096210866 78.69293268516 239.25846210866 C 79.38043268516 238.94596210866 79.91168268516 237.85221210866 80.28668268516 235.97721210866 C 80.47418268516 235.03971210866 80.66168268516 234.25846210866 80.84918268516 233.63346210866 C 80.91168268516 233.19596210866 81.41168268516 232.97721210866 82.34918268516 232.97721210866 C 83.22418268516 232.97721210866 83.81793268516 233.13346210866 84.13043268516 233.44596210866 L 84.13043268516 251.16471210866 C 83.88043268516 251.41471210866 83.28668268516 251.53971210866 82.34918268516 251.53971210866 C 81.53668268516 251.53971210866 81.03668268516 251.28971210866 80.84918268516 250.78971210866 C 80.41168268516 249.10221210866 80.02105768516 247.85221210866 79.67730768516 247.03971210866 C 79.33355768516 246.22721210866 79.11480768516 245.78971210866 79.02105768516 245.72721210866 C 78.92730768516 245.66471210866 78.66168268516 245.47721210866 78.22418268516 245.16471210866 C 77.41168268516 244.66471210866 74.53668268516 244.41471210866 69.59918268516 244.41471210866 C 65.09918268516 244.41471210866 62.84918268516 244.66471210866 62.84918268516 245.16471210866 L 62.84918268516 259.69596210866 C 62.84918268516 263.13346210866 63.13043268516 265.66471210866 63.69293268516 267.28971210866 C 64.00543268516 268.10221210866 66.13043268516 268.50846210866 70.06793268516 268.50846210866 L 73.53668268516 268.50846210866 C 78.41168268516 268.50846210866 82.13043268516 267.85221210866 84.69293268516 266.53971210866 C 85.69293268516 266.03971210866 86.81793268516 264.94596210866 88.06793268516 263.25846210866 C 89.31793268516 261.57096210866 90.28668268516 259.66471210866 90.97418268516 257.53971210866 C 91.03668268516 257.16471210866 91.47418268516 256.97721210866 92.28668268516 256.97721210866 C 93.66168268516 256.97721210866 94.53668268516 257.16471210866 94.91168268516 257.53971210866 C 94.72418268516 258.10221210866 94.27105768516 259.38346210866 93.55230768516 261.38346210866 C 92.83355768516 263.38346210866 92.28668268516 264.89908710866 91.91168268516 265.93033710866 C 91.53668268516 266.96158710866 91.13043268516 268.22721210866 90.69293268516 269.72721210866 C 90.25543268516 271.22721210866 89.97418268516 272.44596210866 89.84918268516 273.38346210866 C 87.34918268516 273.38346210866 82.17730768516 273.28971210866 74.33355768516 273.10221210866 C 66.48980768516 272.91471210866 60.97418268516 272.88346210866 57.78668268516 273.00846210866 L 45.31793268516 273.38346210866 C 45.13043268516 273.19596210866 45.03668268516 272.69596210866 45.03668268516 271.88346210866 C 45.03668268516 270.82096210866 45.13043268516 270.28971210866 45.31793268516 270.28971210866 C 46.13043268516 270.28971210866 47.31793268516 270.08658710866 48.88043268516 269.68033710866 C 50.44293268516 269.27408710866 51.34918268516 268.78971210866 51.59918268516 268.22721210866 C 52.03668268516 266.91471210866 52.25543268516 264.07096210866 52.25543268516 259.69596210866 L 52.25543268516 224.25846210866 C 52.25543268516 220.50846210866 52.03668268516 217.94596210866 51.59918268516 216.57096210866 C 51.41168268516 215.88346210866 50.53668268516 215.32096210866 48.97418268516 214.88346210866 C 47.41168268516 214.44596210866 46.16168268516 214.22721210866 45.22418268516 214.22721210866 C 44.97418268516 214.22721210866 44.84918268516 213.75846210866 44.84918268516 212.82096210866 C 44.84918268516 211.94596210866 44.97418268516 211.38346210866 45.22418268516 211.13346210866 C 49.34918268516 211.38346210866 53.50543268516 211.50846210866 57.69293268516 211.50846210866 Z M 127.25543268516 231.66471210866 C 130.69293268516 231.66471210866 133.25543268516 232.69596210866 134.94293268516 234.75846210866 C 134.94293268516 240.07096210866 133.44293268516 242.72721210866 130.44293268516 242.72721210866 C 129.31793268516 242.72721210866 128.09918268516 242.10221210866 126.78668268516 240.85221210866 C 125.47418268516 239.60221210866 124.13043268516 238.97721210866 122.75543268516 238.97721210866 C 120.81793268516 238.97721210866 119.30230768516 239.96158710866 118.20855768516 241.93033710866 C 117.11480768516 243.89908710866 116.56793268516 245.94596210866 116.56793268516 248.07096210866 L 116.56793268516 259.78971210866 C 116.56793268516 263.60221210866 116.78668268516 266.41471210866 117.22418268516 268.22721210866 C 117.34918268516 268.66471210866 118.17730768516 269.11783710866 119.70855768516 269.58658710866 C 121.23980768516 270.05533710866 122.28668268516 270.28971210866 122.84918268516 270.28971210866 C 123.03668268516 270.28971210866 123.14605768516 270.74283710866 123.17730768516 271.64908710866 C 123.20855768516 272.55533710866 123.19293268516 273.16471210866 123.13043268516 273.47721210866 C 122.63043268516 273.41471210866 120.97418268516 273.28971210866 118.16168268516 273.10221210866 C 115.34918268516 272.91471210866 113.22418268516 272.82096210866 111.78668268516 272.82096210866 C 110.28668268516 272.82096210866 108.11480768516 272.91471210866 105.27105768516 273.10221210866 C 102.42730768516 273.28971210866 100.75543268516 273.41471210866 100.25543268516 273.47721210866 C 100.00543268516 273.22721210866 99.88043268516 272.63346210866 99.88043268516 271.69596210866 C 99.88043268516 270.75846210866 100.00543268516 270.28971210866 100.25543268516 270.28971210866 C 101.00543268516 270.28971210866 102.14605768516 270.05533710866 103.67730768516 269.58658710866 C 105.20855768516 269.11783710866 106.03668268516 268.66471210866 106.16168268516 268.22721210866 C 106.59918268516 266.35221210866 106.81793268516 264.07096210866 106.81793268516 261.38346210866 L 106.81793268516 246.10221210866 C 106.81793268516 243.16471210866 106.31793268516 241.16471210866 105.31793268516 240.10221210866 C 104.81793268516 239.47721210866 104.11480768516 239.00846210866 103.20855768516 238.69596210866 C 102.30230768516 238.38346210866 101.55230768516 238.19596210866 100.95855768516 238.13346210866 C 100.36480768516 238.07096210866 100.06793268516 237.97721210866 100.06793268516 237.85221210866 C 100.06793268516 236.03971210866 100.22418268516 235.10221210866 100.53668268516 235.03971210866 C 103.41168268516 234.78971210866 108.44293268516 233.85221210866 115.63043268516 232.22721210866 C 115.63043268516 232.22721210866 115.73980768516 232.19596210866 115.95855768516 232.13346210866 C 116.17730768516 232.07096210866 116.31793268516 232.03971210866 116.38043268516 232.03971210866 C 116.63043268516 232.03971210866 116.84918268516 232.25846210866 117.03668268516 232.69596210866 C 117.22418268516 233.13346210866 117.30230768516 233.49283710866 117.27105768516 233.77408710866 C 117.23980768516 234.05533710866 117.19293268516 234.49283710866 117.13043268516 235.08658710866 C 117.06793268516 235.68033710866 116.98980768516 236.30533710866 116.89605768516 236.96158710866 C 116.80230768516 237.61783710866 116.75543268516 238.03971210866 116.75543268516 238.22721210866 C 117.88043268516 236.53971210866 119.41168268516 235.02408710866 121.34918268516 233.68033710866 C 123.28668268516 232.33658710866 125.25543268516 231.66471210866 127.25543268516 231.66471210866 Z M 160.06793268516 236.07096210866 C 157.13043268516 236.07096210866 154.84918268516 237.49283710866 153.22418268516 240.33658710866 C 151.59918268516 243.18033710866 150.78668268516 246.57096210866 150.78668268516 250.50846210866 C 150.78668268516 255.57096210866 151.80230768516 259.97721210866 153.83355768516 263.72721210866 C 155.86480768516 267.47721210866 158.69293268516 269.35221210866 162.31793268516 269.35221210866 C 165.25543268516 269.35221210866 167.55230768516 267.91471210866 169.20855768516 265.03971210866 C 170.86480768516 262.16471210866 171.69293268516 258.78971210866 171.69293268516 254.91471210866 C 171.69293268516 251.66471210866 171.28668268516 248.64908710866 170.47418268516 245.86783710866 C 169.66168268516 243.08658710866 168.34918268516 240.75846210866 166.53668268516 238.88346210866 C 164.72418268516 237.00846210866 162.56793268516 236.07096210866 160.06793268516 236.07096210866 Z M 161.28668268516 231.66471210866 C 167.16168268516 231.66471210866 172.17730768516 233.71158710866 176.33355768516 237.80533710866 C 180.48980768516 241.89908710866 182.56793268516 246.85221210866 182.56793268516 252.66471210866 C 182.56793268516 258.47721210866 180.52105768516 263.44596210866 176.42730768516 267.57096210866 C 172.33355768516 271.69596210866 167.31793268516 273.75846210866 161.38043268516 273.75846210866 C 155.44293268516 273.75846210866 150.41168268516 271.69596210866 146.28668268516 267.57096210866 C 142.16168268516 263.44596210866 140.09918268516 258.47721210866 140.09918268516 252.66471210866 C 140.09918268516 246.78971210866 142.14605768516 241.82096210866 146.23980768516 237.75846210866 C 150.33355768516 233.69596210866 155.34918268516 231.66471210866 161.28668268516 231.66471210866 Z M 193.06793268516 238.22721210866 L 187.34918268516 238.22721210866 C 186.91168268516 238.22721210866 186.69293268516 237.41471210866 186.69293268516 235.78971210866 C 186.69293268516 235.35221210866 186.72418268516 235.07096210866 186.78668268516 234.94596210866 C 189.28668268516 233.82096210866 191.69293268516 232.16471210866 194.00543268516 229.97721210866 C 194.81793268516 229.16471210866 195.70855768516 228.24283710866 196.67730768516 227.21158710866 C 197.64605768516 226.18033710866 198.45855768516 225.25846210866 199.11480768516 224.44596210866 C 199.77105768516 223.63346210866 200.09918268516 223.22721210866 200.09918268516 223.22721210866 C 200.72418268516 223.22721210866 201.31793268516 223.30533710866 201.88043268516 223.46158710866 C 202.44293268516 223.61783710866 202.72418268516 223.78971210866 202.72418268516 223.97721210866 L 202.72418268516 233.16471210866 C 204.34918268516 233.16471210866 206.61480768516 233.18033710866 209.52105768516 233.21158710866 C 212.42730768516 233.24283710866 213.97418268516 233.25846210866 214.16168268516 233.25846210866 C 214.66168268516 233.25846210866 214.91168268516 233.53971210866 214.91168268516 234.10221210866 C 214.91168268516 235.60221210866 214.59918268516 236.97721210866 213.97418268516 238.22721210866 L 202.72418268516 238.22721210866 L 202.72418268516 260.82096210866 C 202.72418268516 263.32096210866 203.25543268516 265.22721210866 204.31793268516 266.53971210866 C 205.38043268516 267.85221210866 206.84918268516 268.50846210866 208.72418268516 268.50846210866 C 209.34918268516 268.50846210866 210.00543268516 268.43033710866 210.69293268516 268.27408710866 C 211.38043268516 268.11783710866 211.94293268516 267.94596210866 212.38043268516 267.75846210866 C 212.81793268516 267.57096210866 213.22418268516 267.38346210866 213.59918268516 267.19596210866 C 213.97418268516 267.00846210866 214.19293268516 266.91471210866 214.25543268516 266.91471210866 C 214.50543268516 266.85221210866 214.78668268516 267.13346210866 215.09918268516 267.75846210866 C 215.41168268516 268.38346210866 215.53668268516 268.78971210866 215.47418268516 268.97721210866 C 215.09918268516 269.85221210866 213.77105768516 270.86783710866 211.48980768516 272.02408710866 C 209.20855768516 273.18033710866 206.97418268516 273.75846210866 204.78668268516 273.75846210866 C 201.53668268516 273.75846210866 198.77105768516 272.71158710866 196.48980768516 270.61783710866 C 194.20855768516 268.52408710866 193.06793268516 265.28971210866 193.06793268516 260.91471210866 L 193.06793268516 238.22721210866 Z M 225.69293268516 216.43033710866 C 225.69293268516 214.83658710866 226.25543268516 213.47721210866 227.38043268516 212.35221210866 C 228.50543268516 211.22721210866 229.88043268516 210.66471210866 231.50543268516 210.66471210866 C 233.13043268516 210.66471210866 234.50543268516 211.22721210866 235.63043268516 212.35221210866 C 236.75543268516 213.47721210866 237.31793268516 214.83658710866 237.31793268516 216.43033710866 C 237.31793268516 218.02408710866 236.75543268516 219.39908710866 235.63043268516 220.55533710866 C 234.50543268516 221.71158710866 233.13043268516 222.28971210866 231.50543268516 222.28971210866 C 229.88043268516 222.28971210866 228.50543268516 221.71158710866 227.38043268516 220.55533710866 C 226.25543268516 219.39908710866 225.69293268516 218.02408710866 225.69293268516 216.43033710866 Z M 237.13043268516 259.78971210866 C 237.13043268516 263.60221210866 237.38043268516 266.41471210866 237.88043268516 268.22721210866 C 238.00543268516 268.66471210866 238.84918268516 269.11783710866 240.41168268516 269.58658710866 C 241.97418268516 270.05533710866 243.03668268516 270.28971210866 243.59918268516 270.28971210866 C 243.84918268516 270.28971210866 243.98980768516 270.74283710866 244.02105768516 271.64908710866 C 244.05230768516 272.55533710866 244.00543268516 273.16471210866 243.88043268516 273.47721210866 C 243.44293268516 273.41471210866 241.77105768516 273.28971210866 238.86480768516 273.10221210866 C 235.95855768516 272.91471210866 233.81793268516 272.82096210866 232.44293268516 272.82096210866 C 230.88043268516 272.82096210866 228.67730768516 272.91471210866 225.83355768516 273.10221210866 C 222.98980768516 273.28971210866 221.34918268516 273.41471210866 220.91168268516 273.47721210866 C 220.66168268516 273.22721210866 220.53668268516 272.63346210866 220.53668268516 271.69596210866 C 220.53668268516 270.75846210866 220.66168268516 270.28971210866 220.91168268516 270.28971210866 C 221.59918268516 270.28971210866 222.72418268516 270.05533710866 224.28668268516 269.58658710866 C 225.84918268516 269.11783710866 226.69293268516 268.66471210866 226.81793268516 268.22721210866 C 227.25543268516 266.35221210866 227.47418268516 264.07096210866 227.47418268516 261.38346210866 L 227.47418268516 246.10221210866 C 227.47418268516 243.16471210866 226.97418268516 241.16471210866 225.97418268516 240.10221210866 C 225.41168268516 239.47721210866 224.69293268516 239.00846210866 223.81793268516 238.69596210866 C 222.94293268516 238.38346210866 222.19293268516 238.19596210866 221.56793268516 238.13346210866 C 220.94293268516 238.07096210866 220.63043268516 237.97721210866 220.63043268516 237.85221210866 C 220.63043268516 236.03971210866 220.81793268516 235.10221210866 221.19293268516 235.03971210866 C 222.94293268516 234.91471210866 225.47418268516 234.53971210866 228.78668268516 233.91471210866 C 232.09918268516 233.28971210866 234.56793268516 232.72721210866 236.19293268516 232.22721210866 C 236.25543268516 232.22721210866 236.39605768516 232.19596210866 236.61480768516 232.13346210866 C 236.83355768516 232.07096210866 236.94293268516 232.03971210866 236.94293268516 232.03971210866 C 237.25543268516 232.03971210866 237.50543268516 232.25846210866 237.69293268516 232.69596210866 C 237.88043268516 233.13346210866 237.94293268516 233.47721210866 237.88043268516 233.72721210866 C 237.38043268516 237.72721210866 237.13043268516 240.41471210866 237.13043268516 241.78971210866 L 237.13043268516 259.78971210866 Z M 268.72418268516 231.66471210866 C 272.03668268516 231.66471210866 274.98980768516 232.21158710866 277.58355768516 233.30533710866 C 280.17730768516 234.39908710866 282.03668268516 235.60221210866 283.16168268516 236.91471210866 C 283.16168268516 239.03971210866 282.80230768516 240.80533710866 282.08355768516 242.21158710866 C 281.36480768516 243.61783710866 280.28668268516 244.32096210866 278.84918268516 244.32096210866 C 277.66168268516 244.32096210866 276.70855768516 244.00846210866 275.98980768516 243.38346210866 C 275.27105768516 242.75846210866 274.53668268516 241.72721210866 273.78668268516 240.28971210866 C 272.34918268516 237.41471210866 270.25543268516 235.97721210866 267.50543268516 235.97721210866 C 264.81793268516 235.97721210866 262.67730768516 237.33658710866 261.08355768516 240.05533710866 C 259.48980768516 242.77408710866 258.69293268516 246.19596210866 258.69293268516 250.32096210866 C 258.69293268516 255.94596210866 259.84918268516 260.11783710866 262.16168268516 262.83658710866 C 264.47418268516 265.55533710866 267.41168268516 266.91471210866 270.97418268516 266.91471210866 C 271.91168268516 266.91471210866 272.81793268516 266.86783710866 273.69293268516 266.77408710866 C 274.56793268516 266.68033710866 275.38043268516 266.52408710866 276.13043268516 266.30533710866 C 276.88043268516 266.08658710866 277.53668268516 265.88346210866 278.09918268516 265.69596210866 C 278.66168268516 265.50846210866 279.23980768516 265.22721210866 279.83355768516 264.85221210866 C 280.42730768516 264.47721210866 280.84918268516 264.21158710866 281.09918268516 264.05533710866 C 281.34918268516 263.89908710866 281.72418268516 263.64908710866 282.22418268516 263.30533710866 C 282.72418268516 262.96158710866 282.97418268516 262.78971210866 282.97418268516 262.78971210866 C 283.09918268516 262.85221210866 283.25543268516 263.03971210866 283.44293268516 263.35221210866 C 283.63043268516 263.66471210866 283.72418268516 263.97721210866 283.72418268516 264.28971210866 C 283.72418268516 264.97721210866 283.53668268516 265.57096210866 283.16168268516 266.07096210866 C 282.22418268516 267.75846210866 280.38043268516 269.44596210866 277.63043268516 271.13346210866 C 274.88043268516 272.82096210866 271.81793268516 273.66471210866 268.44293268516 273.66471210866 C 262.88043268516 273.66471210866 258.14605768516 271.63346210866 254.23980768516 267.57096210866 C 250.33355768516 263.50846210866 248.38043268516 258.53971210866 248.38043268516 252.66471210866 C 248.38043268516 246.97721210866 250.25543268516 242.05533710866 254.00543268516 237.89908710866 C 257.75543268516 233.74283710866 262.66168268516 231.66471210866 268.72418268516 231.66471210866 Z M 304.81793268516 267.66471210866 C 306.50543268516 267.66471210866 307.95855768516 267.22721210866 309.17730768516 266.35221210866 C 310.39605768516 265.47721210866 311.00543268516 264.47721210866 311.00543268516 263.35221210866 L 311.00543268516 253.78971210866 C 310.56793268516 253.97721210866 309.64605768516 254.28971210866 308.23980768516 254.72721210866 C 306.83355768516 255.16471210866 305.75543268516 255.53971210866 305.00543268516 255.85221210866 C 304.25543268516 256.16471210866 303.38043268516 256.60221210866 302.38043268516 257.16471210866 C 301.38043268516 257.72721210866 300.64605768516 258.41471210866 300.17730768516 259.22721210866 C 299.70855768516 260.03971210866 299.47418268516 260.91471210866 299.47418268516 261.85221210866 C 299.47418268516 263.85221210866 299.97418268516 265.32096210866 300.97418268516 266.25846210866 C 301.97418268516 267.19596210866 303.25543268516 267.66471210866 304.81793268516 267.66471210866 Z M 309.03668268516 231.66471210866 C 312.91168268516 231.66471210866 315.81793268516 232.68033710866 317.75543268516 234.71158710866 C 319.69293268516 236.74283710866 320.66168268516 240.22721210866 320.66168268516 245.16471210866 L 320.66168268516 263.63346210866 C 320.66168268516 264.88346210866 320.94293268516 265.83658710866 321.50543268516 266.49283710866 C 322.06793268516 267.14908710866 322.81793268516 267.47721210866 323.75543268516 267.47721210866 C 324.69293268516 267.47721210866 325.75543268516 267.07096210866 326.94293268516 266.25846210866 C 327.31793268516 266.38346210866 327.50543268516 266.72721210866 327.50543268516 267.28971210866 C 327.50543268516 268.53971210866 327.31793268516 269.47721210866 326.94293268516 270.10221210866 C 326.00543268516 270.85221210866 324.75543268516 271.63346210866 323.19293268516 272.44596210866 C 321.63043268516 273.25846210866 320.13043268516 273.66471210866 318.69293268516 273.66471210866 C 317.25543268516 273.66471210866 315.84918268516 273.13346210866 314.47418268516 272.07096210866 C 313.09918268516 271.00846210866 312.19293268516 269.85221210866 311.75543268516 268.60221210866 C 311.69293268516 268.66471210866 311.45855768516 268.86783710866 311.05230768516 269.21158710866 C 310.64605768516 269.55533710866 310.08355768516 269.97721210866 309.36480768516 270.47721210866 C 308.64605768516 270.97721210866 307.83355768516 271.47721210866 306.92730768516 271.97721210866 C 306.02105768516 272.47721210866 304.95855768516 272.89908710866 303.73980768516 273.24283710866 C 302.52105768516 273.58658710866 301.28668268516 273.75846210866 300.03668268516 273.75846210866 C 296.91168268516 273.75846210866 294.36480768516 272.89908710866 292.39605768516 271.18033710866 C 290.42730768516 269.46158710866 289.44293268516 267.10221210866 289.44293268516 264.10221210866 C 289.44293268516 262.60221210866 289.80230768516 261.19596210866 290.52105768516 259.88346210866 C 291.23980768516 258.57096210866 292.09918268516 257.49283710866 293.09918268516 256.64908710866 C 294.09918268516 255.80533710866 295.44293268516 254.97721210866 297.13043268516 254.16471210866 C 298.81793268516 253.35221210866 300.27105768516 252.74283710866 301.48980768516 252.33658710866 C 302.70855768516 251.93033710866 304.27105768516 251.44596210866 306.17730768516 250.88346210866 C 308.08355768516 250.32096210866 309.41168268516 249.91471210866 310.16168268516 249.66471210866 C 310.72418268516 249.41471210866 311.00543268516 248.91471210866 311.00543268516 248.16471210866 L 311.00543268516 243.00846210866 C 311.00543268516 240.82096210866 310.50543268516 239.10221210866 309.50543268516 237.85221210866 C 308.50543268516 236.60221210866 307.16168268516 235.97721210866 305.47418268516 235.97721210866 C 303.59918268516 235.97721210866 302.13043268516 236.55533710866 301.06793268516 237.71158710866 C 300.00543268516 238.86783710866 299.47418268516 240.50846210866 299.47418268516 242.63346210866 C 299.47418268516 243.88346210866 299.00543268516 244.80533710866 298.06793268516 245.39908710866 C 297.13043268516 245.99283710866 296.06793268516 246.28971210866 294.88043268516 246.28971210866 C 292.56793268516 246.28971210866 290.94293268516 245.53971210866 290.00543268516 244.03971210866 C 290.00543268516 241.03971210866 292.05230768516 238.22721210866 296.14605768516 235.60221210866 C 300.23980768516 232.97721210866 304.53668268516 231.66471210866 309.03668268516 231.66471210866 Z"/></svg>